<?xml version="1.0" encoding="UTF-8" standalone="no"?>
<svg
   width="120.05428"
   height="118.27806"
   enable-background="new 0 0 124.44 144"
   version="1.1"
   viewBox="0 0 120.05428 118.27806"
   xml:space="preserve"
   id="svg44"
   sodipodi:docname="sia_logo2.svg"
   inkscape:version="1.1 (c68e22c387, 2021-05-23)"
   xmlns:inkscape="http://www.inkscape.org/namespaces/inkscape"
   xmlns:sodipodi="http://sodipodi.sourceforge.net/DTD/sodipodi-0.dtd"
   xmlns="http://www.w3.org/2000/svg"
   xmlns:svg="http://www.w3.org/2000/svg"><defs
   id="defs48" /><sodipodi:namedview
   id="namedview46"
   pagecolor="#ffffff"
   bordercolor="#666666"
   borderopacity="1.0"
   inkscape:pageshadow="2"
   inkscape:pageopacity="0.0"
   inkscape:pagecheckerboard="0"
   showgrid="false"
   inkscape:zoom="5.2724992"
   inkscape:cx="13.371268"
   inkscape:cy="59.649131"
   inkscape:window-width="2560"
   inkscape:window-height="1361"
   inkscape:window-x="-9"
   inkscape:window-y="-9"
   inkscape:window-maximized="1"
   inkscape:current-layer="svg44" />

<g
   id="g1091"
   transform="translate(0.6002699,0.60004012)"><path
     d="m 59.428,2 c -1.159,0.004 -2.3135,0.20336 -3.3145,0.69336 l -0.0078,0.0039 c -17.459,8.794 -34.461,18.371 -51.395,28.068 -0.826,0.476 -1.4783,1.1692 -1.9473,1.9512 -0.466,0.785 -0.75967,1.6668 -0.76367,2.5898 0,0.207 0.015781,0.415 0.050781,0.625 0.538,3.268 1.0716,6.5348 3.0332,19.041 2.4496,16.171 3.3866,23.111 4.1816,30.07 v 0.006 c 0.11372,0.97497 0.53465,1.8779 1.0996,2.6856 0.577,0.808 1.3065,1.5155 2.1855,1.9785 14.886,7.8742 29.493,16.25 44.098,24.684 0.85,0.484 1.8153,0.67764 2.7793,0.68164 0.962,-0.004 1.9293,-0.19664 2.7793,-0.68164 14.603,-8.4338 29.215,-16.805 44.097999,-24.682 l 0.006,-0.004 c 0.8762,-0.46505 1.602,-1.1715 2.1797,-1.9766 0.566,-0.81 0.98757,-1.7164 1.1016,-2.6934 0.805,-7.051 1.7561,-14.079 2.7891,-21.1 l 2.3281,-15.141 c 0.688,-4.29 1.3887,-8.5791 2.0957,-12.871 v -0.002 c 0.033,-0.208 0.0488,-0.41605 0.0488,-0.62305 -0.004,-0.923 -0.29471,-1.8048 -0.76171,-2.5898 -0.469,-0.781 -1.1213,-1.4752 -1.9473,-1.9512 -16.934999,-9.692 -33.937999,-19.271 -51.394999,-28.066 l -0.0078,-0.0039 C 61.627201,2.25315 60.441101,2.00908 59.428,2 Z"
     fill="#ffffff"
     stroke="#ffffff"
     stroke-width="4.1"
     id="path4"
     style="stroke-width:5.2;stroke-miterlimit:4;stroke-dasharray:none" /><path
     d="m 51.437,45.3 c -1.356,0.027 -2.0327,0.04503 -3.3887,0.08203 -1.316,4.084 -1.9636,6.1277 -3.2246,10.223 -0.115,0.321 -0.18275,0.41578 -0.46875,0.42578 -0.135,0.004 -0.20289,0.0067 -0.33789,0.01172 0.038,1.118 0.0567,1.6779 0.0957,2.7949 0.816,-0.028 1.227,-0.04141 2.043,-0.06641 0.871,-0.027 1.2179,-0.29705 1.4609,-1.123 0.203,-0.693 0.30577,-1.0375 0.50977,-1.7285 1.485,-0.039 2.2279,-0.05694 3.7129,-0.08594 0.235,0.682 0.35294,1.0221 0.58594,1.7051 0.283,0.813 0.64167,1.0687 1.5137,1.0547 0.817,-0.013 1.224,-0.01934 2.041,-0.02734 -0.013,-1.119 -0.01725,-1.6789 -0.03125,-2.7969 -0.136,10e-4 -0.20484,0.0029 -0.33984,0.0039 -0.285,0.003 -0.36028,-0.0883 -0.48828,-0.4043 -1.448,-4.031 -2.1826,-6.0464 -3.6836,-10.068 z m 27.199,0.17188 c -0.035,1.08 -0.05489,1.6221 -0.08789,2.7031 0.275,0.008 0.4115,0.01248 0.6875,0.02148 0.271,0.009 0.39572,0.14483 0.38672,0.42383 -0.119,3.541 -0.18174,5.3115 -0.30274,8.8535 -0.033,0.95 0.344,1.3722 1.25,1.4062 1.137,0.041 1.7048,0.06628 2.8418,0.11328 0.047,-1.08 0.06628,-1.6192 0.11328,-2.7012 -0.271,-0.011 -0.40573,-0.0173 -0.67773,-0.0293 -0.268,-0.011 -0.38695,-0.14678 -0.37695,-0.42578 0.143,-3.54 0.21347,-5.3096 0.35547,-8.8496 0.037,-0.951 -0.34639,-1.3781 -1.2754,-1.4141 -1.166,-0.043 -1.7501,-0.06356 -2.9141,-0.10156 z m 26.111,1.4941 c -0.086,1.041 -0.12889,1.5626 -0.2129,2.6016 1.049,0.087 1.574,0.13261 2.623,0.22461 0.09,-1.042 0.13661,-1.5616 0.22461,-2.6016 -1.055,-0.093 -1.5798,-0.13861 -2.6348,-0.22461 z M 8.515,47.90739 c -2.318,0.236 -3.475,0.362 -5.791,0.625 0.126,1.111 0.1865,1.6634 0.3125,2.7754 0.542,-0.061 0.81052,-0.09039 1.3535,-0.15039 0.338,3.078 0.5077,4.6154 0.8457,7.6914 -0.533,0.06 -0.79903,0.08844 -1.332,0.14844 0.125,1.112 0.1865,1.6683 0.3125,2.7793 2.256,-0.255 3.3845,-0.37647 5.6445,-0.60547 -0.113,-1.113 -0.1712,-1.6692 -0.2832,-2.7832 -0.535,0.057 -0.80094,0.08267 -1.3359,0.13867 -0.32,-3.079 -0.47783,-4.6193 -0.79883,-7.6973 0.542,-0.057 0.81252,-0.08267 1.3535,-0.13867 -0.112,-1.113 -0.16825,-1.6712 -0.28125,-2.7832 z m 4.9609,0.66211 c -1.218,0.112 -1.826,0.17102 -3.043,0.29102 0.101,1.032 0.15095,1.5442 0.25195,2.5762 -0.512,0.052 -0.76925,0.07786 -1.2812,0.13086 0.101,1.001 0.14995,1.5029 0.25195,2.5059 0.473,-0.049 0.71055,-0.07314 1.1855,-0.11914 0.137,1.41 0.2067,2.1144 0.3457,3.5234 0.159,1.615 1.004,2.4405 1.873,2.8535 0.938,0.448 2.003,0.42928 2.748,0.36328 0.337,-0.031 0.60213,-0.06991 0.82813,-0.12891 -0.098,-1.113 -0.14809,-1.6722 -0.24609,-2.7852 -0.164,0.021 -0.2442,0.02974 -0.4082,0.05273 -1.086,0.096 -1.676,-0.25917 -1.752,-1.0762 -0.114,-1.24 -0.17016,-1.8596 -0.28516,-3.1016 0.777,-0.071 1.1635,-0.10578 1.9395,-0.17578 -0.088,-1.002 -0.1337,-1.5058 -0.2207,-2.5078 -0.781,0.068 -1.1702,0.10473 -1.9492,0.17773 -0.094,-1.033 -0.14328,-1.5481 -0.23828,-2.5801 z m 49.799,0.13867 c -1.324,-0.002 -2.3163,0.55816 -2.9473,1.6602 h -0.03711 c 0.008,-0.089 0.01158,-0.13461 0.01758,-0.22461 V 50.0129 c -0.002,-0.67 -0.45369,-1.0812 -1.3047,-1.0762 -1.115,0.006 -1.6721,0.01144 -2.7871,0.02344 0.011,1.081 0.01634,1.6231 0.02734,2.7031 0.273,-0.003 0.41255,-0.0048 0.68555,-0.0078 0.271,-10e-4 0.39644,0.12625 0.39844,0.40625 0.023,2.595 0.03464,3.8952 0.05664,6.4902 1.23,-0.01 1.8442,-0.01458 3.0742,-0.01758 -0.004,-1.701 -0.0077,-2.55 -0.01367,-4.25 -0.002,-0.484 0.05869,-0.91753 0.17969,-1.2695 0.309,-0.903 0.91408,-1.3809 1.8301,-1.3809 0.686,10e-4 1.0254,0.43248 1.0234,1.2715 -0.006,1.708 -0.0076,2.5625 -0.01563,4.2695 -0.002,0.951 0.38697,1.3612 1.293,1.3672 1.137,0.006 1.7068,0.01139 2.8438,0.02539 0.014,-1.081 0.01825,-1.6211 0.03125,-2.7031 -0.271,-0.003 -0.40769,-0.0029 -0.67969,-0.0059 -0.268,-0.003 -0.39267,-0.13702 -0.38867,-0.41602 0.012,-1.246 0.0183,-1.8683 0.0293,-3.1133 0.021,-2.405 -1.0904,-3.6131 -3.3164,-3.6211 z m -13.473,0.04102 h 0.03711 c 0.23,0.875 0.34427,1.3125 0.57227,2.1875 0.279,0.882 0.41931,1.3221 0.69531,2.2031 -0.947,0.02 -1.4211,0.03164 -2.3691,0.05664 0.235,-0.894 0.3538,-1.3414 0.5918,-2.2344 0.149,-0.563 0.31166,-1.2959 0.47266,-2.2129 z m 23.027,0.07617 c -2.482,-0.052 -3.7251,0.68241 -3.7461,2.1914 -0.006,0.425 -0.01162,0.6395 -0.01563,1.0625 1.15,0.017 1.7269,0.02483 2.8789,0.04883 0.004,-0.172 0.0058,-0.25774 0.0098,-0.42774 0.004,-0.317 0.27731,-0.46122 0.82031,-0.44922 0.791,0.017 1.1802,0.38139 1.1582,1.2754 l -0.002,0.10938 c -0.051,0 -0.076,10e-4 -0.125,0 -0.955,-0.022 -1.91,0.06745 -3.207,0.43945 -1.281,0.367 -2.1929,1.3089 -2.2109,2.6309 -0.01,0.933 0.28528,1.6996 0.86328,2.2676 0.578,0.568 1.3361,0.85995 2.2051,0.87695 1.918,0.037 2.5938,-1.3418 2.5938,-1.3418 l 0.03516,0.0039 c -0.002,0.066 -0.0058,0.10002 -0.0078,0.16602 -0.01,0.521 0.3865,1.0171 1.1875,1.0391 1.065,0.023 1.5971,0.03922 2.6641,0.07422 0.033,-1.082 0.05098,-1.6231 0.08398,-2.7031 -0.271,-0.009 -0.40578,-0.01348 -0.67578,-0.02148 -0.27,-0.01 -0.39086,-0.14288 -0.38086,-0.42188 0.033,-1.119 0.04908,-1.6769 0.08008,-2.7949 0.078,-2.61 -1.334,-3.9644 -4.209,-4.0254 z m -33.781,0.375 c -1.303,0.058 -2.4272,0.83781 -2.9062,1.7578 l -0.03711,0.0039 c -0.54,-1.056 -1.4365,-1.5543 -2.6855,-1.4863 -1.102,0.06 -1.9948,0.6705 -2.6328,1.8125 l -0.03516,0.0039 c 0.002,-0.09 0.0039,-0.13656 0.0059,-0.22656 -0.003,-0.053 -0.0038,-0.07786 -0.0078,-0.13086 -0.039,-0.67 -0.51819,-1.054 -1.3672,-1.002 -1.121,0.071 -1.6798,0.10955 -2.8008,0.18555 0.072,1.079 0.10859,1.6173 0.18359,2.6953 0.271,-0.017 0.40764,-0.02787 0.68164,-0.04687 0.271,-0.017 0.40488,0.10772 0.42188,0.38672 0.169,2.59 0.25388,3.8846 0.42188,6.4746 1.228,-0.081 1.8423,-0.12131 3.0703,-0.19531 -0.093,-1.585 -0.14038,-2.3759 -0.23438,-3.9629 -0.021,-0.354 -0.0074,-0.74711 0.05859,-1.1621 0.184,-1.183 0.70188,-1.8133 1.5469,-1.8613 0.486,-0.028 0.74316,0.36897 0.78516,1.168 0.125,2.272 0.18555,3.4096 0.31055,5.6816 1.229,-0.068 1.8443,-0.10211 3.0723,-0.16211 -0.078,-1.585 -0.11541,-2.3788 -0.19141,-3.9648 -0.02,-0.391 0.0027,-0.74994 0.05469,-1.0859 0.171,-1.115 0.70298,-1.8799 1.584,-1.9199 0.487,-0.023 0.73748,0.37478 0.77148,1.1758 0.077,1.729 0.11345,2.5943 0.18945,4.3223 0.043,0.951 0.44947,1.3436 1.3555,1.3066 1.136,-0.048 1.7068,-0.06838 2.8418,-0.10937 -0.037,-1.081 -0.05866,-1.6211 -0.09766,-2.7031 -0.271,0.01 -0.40574,0.01639 -0.67773,0.02539 -0.268,0.01 -0.3982,-0.11548 -0.4082,-0.39648 -0.047,-1.245 -0.06923,-1.8673 -0.11523,-3.1113 -0.096,-2.515 -1.3312,-3.5527 -3.1582,-3.4727 z m 44.861,0.20508 c -0.045,1.08 -0.06628,1.6192 -0.11328,2.6992 0.135,0.006 0.2028,0.0096 0.3418,0.01563 0.178,0.008 0.30081,0.10545 0.38281,0.31445 1.055,2.688 1.5775,4.0335 2.6055,6.7285 -0.047,0.109 -0.07019,0.16348 -0.11719,0.27148 -0.264,0.623 -0.73811,0.91772 -1.4121,0.88672 -0.479,-0.021 -0.89342,-0.24588 -1.2324,-0.67188 -0.479,0.891 -0.71936,1.3356 -1.1934,2.2266 0.109,0.101 0.16448,0.15191 0.27148,0.25391 0.393,0.371 1.3072,0.83881 2.2402,0.88281 1.602,0.076 3.1113,-0.73745 3.9473,-2.6895 1.27,-2.984 1.9118,-4.4771 3.2188,-7.4551 0.082,-0.2 0.23231,-0.28548 0.44531,-0.27148 0.138,0.006 0.2048,0.01153 0.3418,0.01953 0.066,-1.079 0.10006,-1.6192 0.16406,-2.6992 -0.932,-0.057 -1.398,-0.08272 -2.332,-0.13672 -0.504,-0.028 -0.98753,0.22475 -1.1445,0.71875 -0.496,1.527 -0.74242,2.2914 -1.2324,3.8184 -0.107,0.349 -0.24181,0.82666 -0.38281,1.4727 h -0.03711 c -0.104,-0.603 -0.15572,-0.90481 -0.26172,-1.5078 -0.465,-1.578 -0.69888,-2.3664 -1.1719,-3.9414 -0.176,-0.533 -0.52483,-0.81098 -1.0488,-0.83398 -0.912,-0.043 -1.3653,-0.06256 -2.2793,-0.10156 z m 13.68,0.58398 c -0.75033,0.04538 -1.4222,0.24273 -2.002,0.58398 -0.771,0.455 -1.1803,1.157 -1.2383,2.125 -0.195,3.088 4.3949,3.6995 4.3379,4.4805 -0.021,0.316 -0.26356,0.44806 -0.72656,0.41406 -0.41,-0.028 -0.86046,-0.1888 -1.3145,-0.4668 -0.461,-0.281 -0.77288,-0.51774 -0.92188,-0.67774 -0.146,-0.167 -0.22114,-0.24706 -0.36914,-0.41406 -0.602,0.79 -0.90395,1.1836 -1.502,1.9746 0.059,0.079 0.08849,0.11831 0.14648,0.19531 0.398,0.474 1.7132,1.6772 3.7852,1.8242 1.082,0.076 2.0082,-0.13658 2.7402,-0.64258 0.754,-0.52 1.1642,-1.2415 1.2422,-2.1855 0.154,-1.868 -1.521,-2.8326 -2.791,-3.3516 -0.883,-0.361 -1.607,-0.71145 -1.584,-1.0645 0.02,-0.298 0.30142,-0.42767 0.85742,-0.38867 0.449,0.031 0.8305,0.26581 0.8125,0.50781 -0.014,0.186 -0.0202,0.27784 -0.0332,0.46484 1.079,0.079 1.6183,0.11917 2.6953,0.20117 0.035,-0.453 0.0509,-0.67981 0.0859,-1.1328 0.133,-1.71 -1.9103,-2.3324 -3.4453,-2.4414 -0.2665,-0.01875 -0.52528,-0.02098 -0.77539,-0.0059 z m -76.143,0.27539 c -1.463,0.115 -2.5993,0.6948 -3.4023,1.7168 -0.801,1.022 -1.1309,2.2496 -1.0059,3.6816 0.116,1.355 0.66925,2.5041 1.6562,3.4121 0.989,0.909 2.25,1.3095 3.791,1.1895 0.904,-0.069 1.847,-0.41427 2.373,-0.69727 0.274,-0.148 0.54416,-0.33644 0.78516,-0.52344 0.485,-0.381 0.57072,-0.50984 0.63672,-0.58984 -0.549,-0.827 -0.82686,-1.2414 -1.3809,-2.0684 -0.121,0.113 -0.18078,0.1702 -0.30078,0.2832 -0.406,0.347 -1.2844,0.84234 -2.0684,0.90234 -1.052,0.079 -1.9723,-0.46408 -2.2793,-1.5801 2.324,-0.188 3.4865,-0.2755 5.8105,-0.4375 0.002,-0.389 0.0039,-0.58266 0.0059,-0.97266 -0.094,-1.357 -0.56581,-2.447 -1.3828,-3.248 -0.819,-0.801 -1.9003,-1.1714 -3.2383,-1.0684 z m 81.678,0.31055 c -0.086,1.08 -0.12689,1.6193 -0.21289,2.6973 0.271,0.021 0.40769,0.03073 0.67969,0.05273 0.271,0.021 0.38728,0.16341 0.36328,0.44141 -0.166,2.044 -0.25002,3.0654 -0.41602,5.1094 -0.076,0.947 0.28055,1.3888 1.1856,1.4648 1.134,0.097 1.699,0.14509 2.834,0.24609 0.096,-1.076 0.14524,-1.6154 0.24024,-2.6914 -0.27,-0.024 -0.40574,-0.03359 -0.67774,-0.05859 -0.268,-0.023 -0.38147,-0.16731 -0.35547,-0.44531 0.18,-2.043 0.26827,-3.0654 0.44727,-5.1074 0.084,-0.948 -0.27922,-1.3908 -1.1992,-1.4688 -1.156,-0.098 -1.7317,-0.14724 -2.8887,-0.24024 z m 9.252,0.64453 c -0.75117,0.02339 -1.4288,0.20064 -2.0176,0.52539 -0.787,0.432 -1.2128,1.1228 -1.3008,2.0898 -0.281,3.082 4.2909,3.8226 4.2129,4.6016 -0.031,0.315 -0.27528,0.44048 -0.73828,0.39648 -0.41,-0.041 -0.85178,-0.21391 -1.3008,-0.50391 -0.451,-0.294 -0.75634,-0.54208 -0.90234,-0.70508 -0.143,-0.17 -0.21342,-0.25578 -0.35743,-0.42578 -0.625,0.771 -0.93764,1.1576 -1.5566,1.9336 0.057,0.08 0.0836,0.12022 0.14063,0.19922 0.387,0.486 1.6644,1.7256 3.7344,1.9316 1.078,0.106 2.0138,-0.0775 2.7598,-0.5625 0.77,-0.5 1.1987,-1.2114 1.3027,-2.1504 0.207,-1.863 -1.4413,-2.8747 -2.6953,-3.4297 -0.873,-0.385 -1.5897,-0.75838 -1.5547,-1.1094 0.029,-0.297 0.31315,-0.41828 0.86914,-0.36328 0.449,0.045 0.82183,0.2883 0.79883,0.5293 -0.018,0.185 -0.0269,0.27789 -0.0449,0.46289 1.076,0.109 1.6126,0.1663 2.6856,0.2793 0.049,-0.453 0.0721,-0.67886 0.11914,-1.1309 0.181,-1.705 -1.8439,-2.3871 -3.3789,-2.5391 -0.266,-0.0265 -0.525,-0.03709 -0.77539,-0.0293 z m -90.742,1.4629 c 0.629,-0.049 1.1425,0.53153 1.1875,1.1445 -1.054,0.078 -1.5827,0.11908 -2.6367,0.20508 0.167,-0.836 0.64022,-1.2856 1.4492,-1.3496 z m 52.004,1.9043 c 0.114,0.003 0.17016,0.0039 0.28516,0.0059 -0.002,0.061 -0.0039,0.08944 -0.0039,0.14844 -0.01,0.41 -0.17824,0.79748 -0.49024,1.1465 -0.313,0.348 -0.67445,0.52458 -1.0645,0.51758 -0.572,-0.012 -0.86738,-0.35236 -0.85938,-0.81836 0.014,-0.69 1.0038,-1.027 2.1328,-1 z"
     fill="#ffffff"
     fill-opacity="0.99756"
     stroke="#ffffff"
     stroke-width="3.9"
     id="path6"
     style="stroke-width:4.8;stroke-miterlimit:4;stroke-dasharray:none" /><path
     d="m 112.03,63.926 c -0.754,-0.074 -1.447,-0.259 -2.088,-0.501 -1.043,7.09 -2.006,14.194 -2.82,21.328 l -0.002,0.018 c -0.033,0.382 -0.275,0.99 -0.658,1.522 -0.375,0.536 -0.885,0.998 -1.305,1.212 l 0.016,-0.009 -0.021,0.012 c -14.934,7.903 -29.574,16.293 -44.184,24.731 -0.338,0.201 -0.936,0.353 -1.537,0.348 -0.603,0.005 -1.201,-0.146 -1.537,-0.348 C 43.283,103.801 28.645,95.408 13.708,87.508 l -0.006,-0.003 c -0.417,-0.213 -0.929,-0.676 -1.304,-1.212 -0.382,-0.532 -0.624,-1.14 -0.657,-1.522 L 11.74,84.761 C 10.946,77.802 10.01,70.869 8.997,63.952 8.096,64.045 7.341,64.125 6.52,64.215 7.536,71.146 8.473,78.085 9.268,85.044 L 9.269,85.05 9.267,85.034 c 0.111,0.981 0.534,1.889 1.102,2.701 0.577,0.808 1.305,1.517 2.184,1.98 l -0.006,-0.003 c 14.888,7.875 29.498,16.252 44.104,24.687 0.85,0.484 1.816,0.677 2.78,0.681 0.962,-0.004 1.929,-0.196 2.779,-0.681 14.605,-8.435 29.219,-16.809 44.104,-24.687 l -0.006,0.004 c 0.879,-0.465 1.607,-1.174 2.186,-1.981 0.566,-0.81 0.986,-1.715 1.1,-2.692 0.805,-7.051 1.756,-14.079 2.789,-21.1 -0.12,-0.006 -0.234,-0.005 -0.353,-0.017 z"
     fill="#545558"
     id="path8" /><path
     d="M 7.443,50.83 C 7.985,50.773 8.256,50.746 8.797,50.69 8.685,49.577 8.629,49.02 8.516,47.908 6.198,48.144 5.04,48.269 2.724,48.532 c 0.126,1.111 0.187,1.665 0.313,2.777 0.542,-0.061 0.811,-0.091 1.354,-0.151 0.338,3.078 0.507,4.616 0.845,7.692 -0.533,0.06 -0.799,0.088 -1.332,0.148 0.125,1.112 0.187,1.668 0.313,2.779 C 6.473,61.522 7.602,61.401 9.862,61.172 9.749,60.059 9.691,59.502 9.579,58.388 9.044,58.445 8.778,58.47 8.243,58.526 7.923,55.447 7.764,53.908 7.443,50.83 m 8.366,9.864 c 0.337,-0.031 0.601,-0.07 0.827,-0.129 -0.098,-1.113 -0.147,-1.672 -0.245,-2.785 -0.164,0.021 -0.245,0.03 -0.409,0.053 -1.086,0.096 -1.675,-0.259 -1.751,-1.076 -0.114,-1.24 -0.171,-1.859 -0.286,-3.101 0.777,-0.071 1.164,-0.106 1.94,-0.176 -0.088,-1.002 -0.133,-1.505 -0.22,-2.507 -0.781,0.068 -1.171,0.104 -1.95,0.177 -0.094,-1.033 -0.143,-1.548 -0.238,-2.58 -1.218,0.112 -1.827,0.171 -3.044,0.291 0.101,1.032 0.151,1.545 0.252,2.577 -0.512,0.052 -0.768,0.077 -1.28,0.13 0.101,1.001 0.149,1.502 0.251,2.505 0.473,-0.049 0.71,-0.072 1.185,-0.118 0.137,1.41 0.207,2.114 0.346,3.523 0.159,1.615 1.005,2.441 1.874,2.854 0.938,0.448 2.003,0.428 2.748,0.362 m 4.377,-6.661 c 0.167,-0.836 0.639,-1.285 1.448,-1.349 0.629,-0.049 1.143,0.531 1.188,1.144 -1.054,0.078 -1.582,0.119 -2.636,0.205 m 0.066,1.959 c 2.324,-0.188 3.487,-0.275 5.811,-0.437 0.002,-0.389 0.003,-0.583 0.005,-0.973 -0.094,-1.357 -0.566,-2.447 -1.383,-3.248 -0.819,-0.801 -1.9,-1.171 -3.238,-1.068 -1.463,0.115 -2.599,0.694 -3.402,1.716 -0.801,1.022 -1.13,2.249 -1.005,3.681 0.116,1.355 0.668,2.505 1.655,3.413 0.989,0.909 2.251,1.31 3.792,1.19 0.904,-0.069 1.847,-0.416 2.373,-0.699 0.274,-0.148 0.543,-0.336 0.784,-0.523 0.485,-0.381 0.571,-0.509 0.637,-0.589 -0.549,-0.827 -0.826,-1.241 -1.38,-2.068 -0.121,0.113 -0.182,0.17 -0.302,0.283 -0.406,0.347 -1.284,0.841 -2.068,0.901 -1.052,0.079 -1.972,-0.463 -2.279,-1.579 m 20.413,2.976 c 1.136,-0.048 1.706,-0.068 2.841,-0.109 -0.037,-1.081 -0.058,-1.621 -0.097,-2.703 -0.271,0.01 -0.406,0.016 -0.678,0.025 -0.268,0.01 -0.398,-0.115 -0.408,-0.396 -0.047,-1.245 -0.07,-1.867 -0.116,-3.111 -0.096,-2.515 -1.331,-3.553 -3.158,-3.473 -1.303,0.058 -2.427,0.838 -2.906,1.758 l -0.037,0.003 c -0.54,-1.056 -1.437,-1.554 -2.686,-1.486 -1.102,0.06 -1.994,0.671 -2.632,1.813 l -0.036,0.003 c 0.002,-0.09 0.003,-0.136 0.005,-0.226 -0.003,-0.053 -0.004,-0.078 -0.008,-0.131 -0.039,-0.67 -0.517,-1.053 -1.366,-1.001 -1.121,0.071 -1.68,0.108 -2.801,0.184 0.072,1.079 0.108,1.618 0.183,2.696 0.271,-0.017 0.408,-0.027 0.682,-0.046 0.271,-0.017 0.405,0.106 0.422,0.385 0.169,2.59 0.254,3.885 0.422,6.475 1.228,-0.081 1.842,-0.12 3.07,-0.194 -0.093,-1.585 -0.14,-2.376 -0.234,-3.963 -0.021,-0.354 -0.008,-0.748 0.058,-1.163 0.184,-1.183 0.703,-1.814 1.548,-1.862 0.486,-0.028 0.743,0.37 0.785,1.169 0.125,2.272 0.186,3.409 0.311,5.681 1.229,-0.068 1.843,-0.101 3.071,-0.161 -0.078,-1.585 -0.116,-2.38 -0.192,-3.966 -0.02,-0.391 0.004,-0.749 0.056,-1.085 0.171,-1.115 0.702,-1.881 1.583,-1.921 0.487,-0.023 0.738,0.376 0.772,1.177 0.077,1.729 0.113,2.594 0.189,4.322 0.043,0.951 0.451,1.343 1.357,1.306 m 10.442,-5.827 c -0.947,0.02 -1.421,0.03 -2.369,0.055 0.235,-0.894 0.354,-1.34 0.592,-2.233 0.149,-0.563 0.312,-1.296 0.473,-2.213 l 0.037,-10e-4 c 0.23,0.875 0.344,1.313 0.572,2.188 0.279,0.882 0.419,1.323 0.695,2.204 m 2.832,5.452 c 0.817,-0.013 1.225,-0.019 2.042,-0.027 -0.013,-1.119 -0.018,-1.679 -0.032,-2.797 -0.136,0.001 -0.205,0.003 -0.34,0.004 -0.285,0.003 -0.359,-0.089 -0.487,-0.405 -1.448,-4.031 -2.183,-6.045 -3.684,-10.067 -1.356,0.027 -2.034,0.044 -3.39,0.081 -1.316,4.084 -1.962,6.129 -3.223,10.224 -0.115,0.321 -0.183,0.415 -0.469,0.425 -0.135,0.004 -0.203,0.006 -0.338,0.011 0.038,1.118 0.057,1.678 0.096,2.795 0.816,-0.028 1.226,-0.04 2.042,-0.065 0.871,-0.027 1.218,-0.298 1.461,-1.124 0.203,-0.693 0.305,-1.038 0.509,-1.729 1.485,-0.039 2.229,-0.057 3.714,-0.086 0.235,0.682 0.352,1.022 0.585,1.705 0.283,0.813 0.642,1.069 1.514,1.055 M 67.6,58.567 c 0.014,-1.081 0.018,-1.621 0.031,-2.703 -0.271,-0.003 -0.408,-0.003 -0.68,-0.006 -0.268,-0.003 -0.393,-0.136 -0.389,-0.415 0.012,-1.246 0.018,-1.869 0.029,-3.114 0.021,-2.405 -1.09,-3.612 -3.316,-3.62 -1.324,-0.002 -2.316,0.558 -2.947,1.66 h -0.037 c 0.008,-0.089 0.012,-0.134 0.018,-0.224 v -0.132 c -0.002,-0.67 -0.455,-1.08 -1.306,-1.075 -1.115,0.006 -1.672,0.011 -2.787,0.023 0.011,1.081 0.018,1.622 0.029,2.702 0.273,-0.003 0.411,-0.004 0.684,-0.007 0.271,-10e-4 0.397,0.127 0.399,0.407 0.023,2.595 0.034,3.894 0.056,6.489 1.23,-0.01 1.844,-0.014 3.074,-0.017 -0.004,-1.701 -0.006,-2.551 -0.012,-4.251 -0.002,-0.484 0.057,-0.917 0.178,-1.269 0.309,-0.903 0.916,-1.38 1.832,-1.38 0.686,0.001 1.025,0.432 1.023,1.271 -0.006,1.708 -0.008,2.563 -0.016,4.27 -0.002,0.951 0.387,1.361 1.293,1.367 1.137,0.006 1.707,0.01 2.844,0.024 m 6.324,-3.973 c -0.002,0.061 -0.004,0.089 -0.004,0.148 -0.01,0.41 -0.178,0.797 -0.49,1.146 -0.313,0.348 -0.674,0.525 -1.064,0.518 -0.572,-0.012 -0.869,-0.353 -0.861,-0.819 0.014,-0.69 1.004,-1.027 2.133,-1 0.114,0.003 0.171,0.005 0.286,0.007 m 4.008,4.198 c 0.033,-1.082 0.051,-1.623 0.084,-2.703 -0.271,-0.009 -0.406,-0.013 -0.676,-0.021 -0.27,-0.01 -0.391,-0.143 -0.381,-0.422 0.033,-1.119 0.049,-1.677 0.08,-2.795 0.078,-2.61 -1.334,-3.964 -4.209,-4.025 -2.482,-0.052 -3.725,0.682 -3.746,2.191 -0.006,0.425 -0.012,0.639 -0.016,1.062 1.15,0.017 1.727,0.026 2.879,0.05 0.004,-0.172 0.006,-0.258 0.01,-0.428 0.004,-0.317 0.277,-0.461 0.82,-0.449 0.791,0.017 1.18,0.38 1.158,1.274 l -0.002,0.111 c -0.051,0 -0.076,0 -0.125,-10e-4 -0.955,-0.022 -1.91,0.067 -3.207,0.439 -1.281,0.367 -2.193,1.31 -2.211,2.632 -0.01,0.933 0.285,1.7 0.863,2.268 0.578,0.568 1.336,0.86 2.205,0.877 1.918,0.037 2.594,-1.342 2.594,-1.342 l 0.035,0.003 c -0.002,0.066 -0.004,0.1 -0.006,0.166 -0.01,0.521 0.385,1.017 1.186,1.039 1.065,0.023 1.598,0.039 2.665,0.074 m 5.48,0.201 c 0.047,-1.08 0.066,-1.619 0.113,-2.701 -0.271,-0.011 -0.406,-0.017 -0.678,-0.029 -0.268,-0.011 -0.387,-0.147 -0.377,-0.426 0.143,-3.54 0.215,-5.31 0.357,-8.85 0.037,-0.951 -0.348,-1.377 -1.277,-1.413 -1.166,-0.043 -1.75,-0.064 -2.914,-0.102 -0.035,1.08 -0.055,1.622 -0.088,2.703 0.275,0.008 0.412,0.012 0.688,0.021 0.271,0.009 0.396,0.146 0.387,0.425 -0.119,3.541 -0.182,5.311 -0.303,8.853 -0.033,0.95 0.344,1.373 1.25,1.407 1.137,0.041 1.705,0.065 2.842,0.112 m 10.225,-6.376 c 0.066,-1.079 0.1,-1.62 0.164,-2.7 -0.932,-0.057 -1.398,-0.083 -2.332,-0.137 -0.504,-0.028 -0.988,0.226 -1.145,0.72 -0.496,1.527 -0.742,2.291 -1.232,3.818 -0.107,0.349 -0.242,0.827 -0.383,1.473 L 88.672,55.79 C 88.568,55.187 88.516,54.886 88.41,54.283 87.945,52.705 87.711,51.916 87.238,50.341 87.062,49.808 86.713,49.53 86.189,49.507 85.277,49.464 84.824,49.444 83.91,49.405 c -0.045,1.08 -0.066,1.62 -0.113,2.7 0.135,0.006 0.203,0.009 0.342,0.015 0.178,0.008 0.301,0.106 0.383,0.315 1.055,2.688 1.576,4.034 2.604,6.729 -0.047,0.109 -0.07,0.164 -0.117,0.272 -0.264,0.623 -0.738,0.917 -1.412,0.886 -0.479,-0.021 -0.893,-0.246 -1.232,-0.672 -0.479,0.891 -0.719,1.335 -1.193,2.226 0.109,0.101 0.164,0.152 0.271,0.254 0.393,0.371 1.307,0.84 2.24,0.884 1.602,0.076 3.111,-0.739 3.947,-2.691 1.27,-2.984 1.912,-4.477 3.219,-7.455 0.082,-0.2 0.232,-0.285 0.445,-0.271 0.138,0.006 0.206,0.012 0.343,0.02 m 8.088,0.953 c 0.035,-0.453 0.051,-0.68 0.086,-1.133 0.133,-1.71 -1.91,-2.333 -3.445,-2.442 -1.066,-0.075 -2.006,0.123 -2.779,0.578 -0.771,0.455 -1.18,1.158 -1.238,2.126 -0.195,3.088 4.395,3.699 4.338,4.48 -0.021,0.316 -0.264,0.448 -0.727,0.414 -0.41,-0.028 -0.859,-0.188 -1.313,-0.466 -0.461,-0.281 -0.773,-0.518 -0.922,-0.678 -0.146,-0.167 -0.221,-0.248 -0.369,-0.415 -0.602,0.79 -0.904,1.185 -1.502,1.976 0.059,0.079 0.088,0.118 0.146,0.195 0.398,0.474 1.713,1.676 3.785,1.823 1.082,0.076 2.008,-0.136 2.74,-0.642 0.754,-0.52 1.164,-1.241 1.242,-2.185 0.154,-1.868 -1.521,-2.832 -2.791,-3.351 -0.883,-0.361 -1.607,-0.713 -1.584,-1.066 0.02,-0.298 0.301,-0.427 0.857,-0.388 0.449,0.031 0.832,0.265 0.814,0.507 -0.014,0.186 -0.02,0.279 -0.033,0.466 1.079,0.079 1.618,0.119 2.695,0.201 m 5.433,-3.778 c 0.09,-1.042 0.137,-1.562 0.225,-2.602 -1.055,-0.093 -1.58,-0.137 -2.635,-0.223 -0.086,1.041 -0.129,1.562 -0.213,2.601 1.049,0.087 1.574,0.132 2.623,0.224 m 0.401,10.796 c 0.096,-1.076 0.145,-1.616 0.24,-2.692 -0.27,-0.024 -0.406,-0.034 -0.678,-0.059 -0.268,-0.023 -0.381,-0.167 -0.355,-0.445 0.18,-2.043 0.268,-3.065 0.447,-5.107 0.084,-0.948 -0.279,-1.392 -1.199,-1.47 -1.156,-0.098 -1.732,-0.146 -2.889,-0.239 -0.086,1.08 -0.127,1.619 -0.213,2.697 0.271,0.021 0.408,0.031 0.68,0.053 0.271,0.021 0.387,0.163 0.363,0.441 -0.166,2.044 -0.25,3.065 -0.416,5.109 -0.076,0.947 0.281,1.39 1.186,1.466 1.134,0.097 1.699,0.145 2.834,0.246 m 5.593,-9.339 c -1.064,-0.106 -2.008,0.064 -2.793,0.497 -0.787,0.432 -1.213,1.122 -1.301,2.089 -0.281,3.082 4.291,3.823 4.213,4.602 -0.031,0.315 -0.275,0.44 -0.738,0.396 -0.41,-0.041 -0.852,-0.213 -1.301,-0.503 -0.451,-0.294 -0.756,-0.543 -0.902,-0.706 -0.143,-0.17 -0.213,-0.256 -0.357,-0.426 -0.625,0.771 -0.938,1.158 -1.557,1.934 0.057,0.08 0.084,0.121 0.141,0.2 0.387,0.486 1.664,1.725 3.734,1.931 1.078,0.106 2.014,-0.077 2.76,-0.562 0.77,-0.5 1.199,-1.211 1.303,-2.15 0.207,-1.863 -1.441,-2.875 -2.695,-3.43 -0.873,-0.385 -1.59,-0.758 -1.555,-1.109 0.029,-0.297 0.313,-0.419 0.869,-0.364 0.449,0.045 0.822,0.289 0.799,0.53 -0.018,0.185 -0.027,0.278 -0.045,0.463 1.076,0.109 1.613,0.165 2.686,0.278 0.049,-0.453 0.072,-0.679 0.119,-1.131 0.181,-1.705 -1.845,-2.387 -3.38,-2.539"
     fill="#00a4ee"
     id="path10" /><path
     d="m 47.799,28.483 c 0.289,-0.804 0.424,-1.527 0.411,-2.169 -0.015,-0.592 -0.186,-1.056 -0.516,-1.396 -0.329,-0.34 -0.846,-0.5 -1.551,-0.482 -1.051,0.025 -1.989,0.317 -2.816,0.877 -0.827,0.559 -1.46,1.246 -1.904,2.061 -0.442,0.814 -0.653,1.593 -0.636,2.339 0.013,0.54 0.159,1.011 0.438,1.416 0.278,0.405 0.618,0.747 1.015,1.026 0.398,0.279 0.929,0.605 1.591,0.975 0.65,0.371 1.171,0.688 1.562,0.955 0.392,0.267 0.721,0.593 0.987,0.979 0.265,0.386 0.404,0.836 0.417,1.349 0.013,0.592 -0.146,1.103 -0.483,1.535 -0.335,0.432 -0.774,0.764 -1.314,0.996 -0.539,0.231 -1.11,0.355 -1.712,0.369 -0.949,0.024 -1.683,-0.216 -2.201,-0.718 -0.52,-0.501 -0.788,-1.138 -0.807,-1.909 -0.01,-0.449 0.07,-0.901 0.238,-1.355 0.168,-0.453 0.422,-0.871 0.758,-1.252 -0.641,0.015 -1.207,0.231 -1.696,0.649 -0.49,0.417 -0.725,1.081 -0.703,1.993 0.019,0.745 0.216,1.374 0.593,1.885 0.379,0.511 0.878,0.887 1.499,1.13 0.622,0.241 1.292,0.354 2.009,0.336 0.82,-0.02 1.611,-0.203 2.373,-0.549 0.76,-0.346 1.381,-0.833 1.859,-1.462 0.478,-0.628 0.708,-1.367 0.688,-2.214 -0.017,-0.655 -0.181,-1.219 -0.493,-1.694 -0.313,-0.474 -0.685,-0.864 -1.116,-1.168 -0.43,-0.304 -0.996,-0.647 -1.698,-1.03 -0.584,-0.307 -1.046,-0.575 -1.385,-0.805 -0.339,-0.229 -0.625,-0.502 -0.856,-0.818 -0.232,-0.316 -0.354,-0.679 -0.364,-1.089 -0.013,-0.553 0.165,-1.168 0.533,-1.845 0.37,-0.678 0.872,-1.258 1.508,-1.743 0.636,-0.484 1.332,-0.735 2.088,-0.755 0.397,-0.009 0.678,0.055 0.841,0.192 0.164,0.138 0.25,0.341 0.255,0.611 0.006,0.244 -0.035,0.524 -0.124,0.842 -0.09,0.316 -0.224,0.729 -0.403,1.234 -0.168,0.466 -0.297,0.855 -0.385,1.166 -0.089,0.311 -0.131,0.588 -0.125,0.832 0.011,0.463 0.229,0.734 0.654,0.813 0.36,-0.6 0.683,-1.303 0.971,-2.107 m 15.035,0.765 c 0.256,-0.23 0.383,-0.468 0.377,-0.712 -0.01,-0.398 -0.227,-0.592 -0.648,-0.583 -0.322,0.009 -0.631,0.119 -0.936,0.332 -0.303,0.212 -0.451,0.447 -0.445,0.705 0.006,0.207 0.082,0.36 0.232,0.466 0.15,0.106 0.342,0.156 0.57,0.151 0.309,-0.008 0.592,-0.127 0.85,-0.359 m -11.309,2.983 c 0.271,-0.971 0.641,-1.945 1.104,-2.919 0.465,-0.976 0.91,-1.786 1.337,-2.433 0.427,-0.646 0.71,-0.972 0.852,-0.975 0.051,-0.001 0.078,0.049 0.082,0.152 0.008,0.333 -0.155,0.913 -0.488,1.737 -0.334,0.825 -0.762,1.658 -1.288,2.5 -0.525,0.842 -1.058,1.488 -1.599,1.938 m 23.748,6.733 c -0.301,0.791 -0.605,1.447 -0.914,1.969 -0.309,0.522 -0.588,0.904 -0.838,1.148 -0.25,0.245 -0.447,0.368 -0.588,0.371 -0.166,0.004 -0.297,-0.057 -0.391,-0.183 -0.092,-0.126 -0.139,-0.254 -0.143,-0.382 -0.01,-0.398 0.105,-0.761 0.35,-1.088 0.242,-0.327 0.555,-0.62 0.941,-0.881 0.384,-0.26 0.913,-0.578 1.583,-0.954 m 4.84,-4.397 -0.256,-0.186 c -0.326,0.843 -0.764,1.544 -1.314,2.104 -0.551,0.56 -1.143,0.976 -1.779,1.248 0.396,-1.103 0.727,-2.197 0.988,-3.283 0.264,-1.086 0.391,-1.802 0.381,-2.149 -0.154,-0.035 -0.289,-0.051 -0.404,-0.047 -0.281,0.005 -0.5,0.114 -0.656,0.323 -0.154,0.209 -0.254,0.438 -0.301,0.683 -0.055,0.374 -0.111,0.67 -0.17,0.891 -0.406,0.705 -0.838,1.3 -1.295,1.786 -0.457,0.487 -0.857,0.734 -1.203,0.742 -0.461,0.011 -0.699,-0.24 -0.713,-0.754 -0.01,-0.488 0.121,-1.15 0.396,-1.985 0.275,-0.836 0.535,-1.444 0.785,-1.822 -0.004,-0.103 -0.119,-0.2 -0.346,-0.291 -0.227,-0.092 -0.396,-0.136 -0.512,-0.132 -0.18,0.004 -0.398,0.26 -0.656,0.767 -0.258,0.507 -0.48,1.098 -0.668,1.771 -0.057,0.201 -0.088,0.375 -0.125,0.558 -0.369,0.755 -0.76,1.406 -1.172,1.941 -0.455,0.59 -0.9,0.889 -1.334,0.9 -0.385,0.008 -0.584,-0.23 -0.594,-0.719 -0.006,-0.205 0.021,-0.411 0.078,-0.619 0.061,-0.206 0.145,-0.453 0.254,-0.738 0.133,-0.337 0.23,-0.635 0.295,-0.894 0.064,-0.259 0.094,-0.53 0.088,-0.812 -0.012,-0.475 -0.143,-0.881 -0.387,-1.215 -0.244,-0.334 -0.605,-0.496 -1.08,-0.484 -0.666,0.016 -1.338,0.36 -2.012,1.032 -0.68,0.672 -1.313,1.491 -1.906,2.457 0.168,-0.544 0.303,-1.059 0.406,-1.543 0.104,-0.485 0.154,-0.823 0.148,-1.016 -0.008,-0.334 -0.186,-0.497 -0.531,-0.489 -0.166,0.005 -0.33,0.05 -0.496,0.138 -0.166,0.088 -0.291,0.183 -0.377,0.29 0,0.526 -0.096,1.129 -0.285,1.809 -0.014,0.05 -0.033,0.107 -0.049,0.159 -0.895,1.844 -1.822,2.788 -2.783,2.811 -0.335,0.009 -0.578,-0.066 -0.728,-0.224 -0.152,-0.156 -0.232,-0.46 -0.242,-0.91 -0.012,-0.502 0.1,-1.034 0.336,-1.599 0.236,-0.565 0.558,-1.205 0.964,-1.923 0.393,-0.689 0.588,-1.125 0.584,-1.306 -0.004,-0.128 -0.047,-0.23 -0.133,-0.304 -0.086,-0.076 -0.186,-0.112 -0.301,-0.109 -0.41,0.009 -0.823,0.354 -1.235,1.031 -0.414,0.679 -0.754,1.464 -1.021,2.358 -0.03,0.099 -0.052,0.189 -0.079,0.284 -0.35,0.753 -0.775,1.427 -1.3,1.996 -0.575,0.626 -1.081,0.943 -1.516,0.953 -0.181,0.004 -0.324,-0.053 -0.428,-0.173 -0.106,-0.118 -0.162,-0.302 -0.168,-0.545 -0.004,-0.192 0.023,-0.392 0.083,-0.6 0.059,-0.205 0.148,-0.485 0.268,-0.835 0.145,-0.415 0.249,-0.751 0.313,-1.009 0.063,-0.26 0.091,-0.53 0.085,-0.813 -0.012,-0.475 -0.143,-0.879 -0.394,-1.214 -0.252,-0.334 -0.623,-0.497 -1.109,-0.485 -0.794,0.019 -1.504,0.496 -2.13,1.43 -0.625,0.935 -1.175,2.153 -1.653,3.654 -0.032,-0.23 -0.049,-0.447 -0.054,-0.653 -0.014,-0.565 0.033,-1.205 0.137,-1.922 0.104,-0.716 0.266,-1.346 0.482,-1.892 0.708,-0.454 1.393,-1.151 2.057,-2.093 0.664,-0.942 1.198,-1.919 1.604,-2.931 0.405,-1.013 0.601,-1.821 0.586,-2.425 -0.007,-0.308 -0.069,-0.586 -0.184,-0.833 -0.115,-0.248 -0.275,-0.369 -0.48,-0.364 -0.54,0.013 -1.251,0.813 -2.136,2.403 -0.886,1.59 -1.666,3.396 -2.341,5.417 -0.677,2.022 -1.001,3.623 -0.973,4.805 0.014,0.54 0.098,1.007 0.255,1.402 0.157,0.395 0.351,0.588 0.583,0.583 0.216,-0.005 0.411,-0.178 0.583,-0.516 0.171,-0.338 0.401,-0.883 0.692,-1.636 0.384,-1.025 0.747,-1.82 1.086,-2.388 0.339,-0.567 0.746,-0.856 1.219,-0.868 0.218,-0.006 0.396,0.064 0.535,0.208 0.138,0.145 0.211,0.377 0.218,0.699 0.008,0.333 -0.082,0.85 -0.27,1.548 -0.176,0.635 -0.262,1.093 -0.255,1.376 0.009,0.359 0.131,0.649 0.368,0.868 0.235,0.219 0.565,0.323 0.989,0.313 0.717,-0.017 1.399,-0.348 2.044,-0.993 0.347,-0.348 0.656,-0.749 0.932,-1.196 -0.023,0.196 -0.039,0.38 -0.034,0.538 0.011,0.475 0.148,0.86 0.413,1.155 0.263,0.297 0.632,0.438 1.106,0.427 0.77,-0.018 1.497,-0.338 2.18,-0.958 0.254,-0.23 0.475,-0.504 0.682,-0.798 -0.043,0.122 -0.08,0.235 -0.125,0.361 -0.158,0.402 -0.234,0.636 -0.232,0.699 0.105,0.139 0.25,0.243 0.432,0.309 0.18,0.066 0.379,0.097 0.598,0.092 0.504,-0.899 0.957,-1.668 1.357,-2.308 0.402,-0.64 0.861,-1.223 1.383,-1.75 0.518,-0.525 1.021,-0.796 1.51,-0.808 0.514,-0.012 0.777,0.296 0.793,0.926 0.004,0.205 -0.02,0.438 -0.072,0.696 -0.051,0.258 -0.111,0.504 -0.182,0.736 -0.061,0.222 -0.115,0.444 -0.168,0.67 -0.053,0.226 -0.076,0.424 -0.072,0.59 0.008,0.373 0.133,0.668 0.367,0.887 0.236,0.219 0.572,0.324 1.008,0.313 1.074,-0.026 2.002,-0.808 2.785,-2.323 -0.002,0.036 -0.01,0.082 -0.01,0.117 0.012,0.501 0.174,0.883 0.488,1.144 0.314,0.263 0.678,0.39 1.088,0.379 0.486,-0.012 0.955,-0.241 1.408,-0.69 0.449,-0.447 0.896,-1.056 1.34,-1.826 -0.303,1.371 -0.631,2.555 -0.992,3.552 -0.873,0.472 -1.543,0.857 -2.012,1.157 -0.469,0.301 -0.859,0.651 -1.176,1.05 -0.318,0.4 -0.471,0.857 -0.459,1.372 0.008,0.32 0.131,0.567 0.365,0.743 0.236,0.174 0.525,0.257 0.871,0.248 0.615,-0.015 1.221,-0.47 1.824,-1.365 0.6,-0.895 1.166,-2.042 1.695,-3.444 1.932,-0.946 3.114,-2.178 3.553,-3.692"
     fill="#545558"
     id="path12" /><g
     transform="translate(-2.793,-15.227)"
     fill="#00a4ee"
     id="g24"><path
       d="m 57.766,101.38 c -0.111,-5.127 -0.198,-7.723 -0.373,-13.296 -2.446,0.04 -3.67,0.074 -6.129,0.153 0.385,5.475 0.588,8.054 0.848,13.143 z"
       id="path14" /><path
       d="m 50.473,101.38 c -0.116,-1.945 -0.187,-2.932 -0.333,-4.921 -2.336,0.03 -3.508,0.049 -5.86,0.096 0.219,1.942 0.328,2.921 0.506,4.825 z"
       id="path16" /><path
       d="m 65.041,101.38 c 0.086,-6.055 0.211,-12.108 0.332,-18.161 -2.522,-0.037 -3.786,-0.037 -6.307,0 0.122,6.053 0.247,12.106 0.333,18.161 2.257,-0.004 3.386,-0.004 5.642,0"
       id="path18" /><path
       d="m 72.328,101.38 c 0.203,-3.988 0.34,-6.003 0.641,-10.215 -2.412,-0.056 -3.615,-0.079 -6.014,-0.107 -0.133,4.278 -0.193,6.302 -0.279,10.322 z"
       id="path20" /><path
       d="m 79.654,101.38 c 0.279,-2.969 0.463,-4.482 0.816,-7.518 -2.396,-0.072 -3.586,-0.103 -5.963,-0.151 -0.24,3.119 -0.359,4.65 -0.541,7.669 z"
       id="path22" /></g><g
     transform="translate(-2.793,-15.227)"
     fill="#cc392c"
     id="g36"><path
       d="m 52.24,104.19 c 0.091,2.268 0.125,3.4 0.15,5.661 h 5.496 c -0.012,-2.258 -0.025,-3.394 -0.064,-5.661 z"
       id="path26" /><path
       d="m 45.025,104.19 c 0.063,0.825 0.09,1.24 0.138,2.065 2.223,-0.004 3.333,-0.006 5.549,-0.008 -0.03,-0.822 -0.047,-1.239 -0.087,-2.058 h -5.6 z"
       id="path28" /><path
       d="m 59.432,104.19 c 0.033,3.047 0.043,4.561 0.043,7.591 1.098,0 1.922,-0.001 2.745,-0.001 0.823,0 1.647,0.001 2.745,0.001 0,-3.03 0.008,-4.544 0.041,-7.591 z"
       id="path30" /><path
       d="m 66.621,104.19 c -0.031,1.819 -0.043,2.734 -0.059,4.549 1.557,10e-4 2.563,0.002 3.797,0.002 0.512,0 1.061,0 1.705,-0.001 0.031,-1.816 0.061,-2.729 0.135,-4.55 z"
       id="path32" /><path
       d="m 73.816,104.19 c -0.063,1.318 -0.09,1.982 -0.129,3.302 2.207,0 3.313,0.002 5.525,0.004 0.061,-1.322 0.104,-1.983 0.201,-3.306 z"
       id="path34" /></g><rect
     x="38.214001"
     y="86.973"
     width="42.429001"
     height="1"
     fill="#545558"
     id="rect38" /><g
     id="g42"><path
       d="m 2.051,35.933 c 0.538,3.268 1.072,6.535 1.6,9.801 0.897,-0.1 1.656,-0.183 2.477,-0.27 C 5.592,42.151 5.051,38.839 4.506,35.527 4.496,35.461 4.489,35.388 4.489,35.308 4.485,34.95 4.626,34.451 4.898,33.999 5.167,33.546 5.557,33.151 5.946,32.932 22.87,23.242 39.833,13.684 57.224,4.926 L 57.217,4.93 c 0.513,-0.262 1.364,-0.439 2.212,-0.435 0.847,-0.004 1.697,0.173 2.21,0.435 L 61.633,4.926 c 17.389,8.76 34.354,18.317 51.277,28.006 0.389,0.219 0.779,0.614 1.049,1.067 0.271,0.45 0.412,0.95 0.408,1.309 0,0.081 -0.006,0.154 -0.018,0.222 v -0.002 c -0.715,4.341 -1.424,8.684 -2.121,13.028 0.109,-0.004 0.215,-0.014 0.324,-0.014 0.283,0 0.574,0.013 0.865,0.042 0.355,0.036 0.807,0.105 1.291,0.219 0.688,-4.29 1.389,-8.58 2.096,-12.872 v -0.002 c 0.033,-0.208 0.049,-0.416 0.049,-0.623 -0.004,-0.923 -0.295,-1.804 -0.762,-2.589 -0.469,-0.781 -1.121,-1.476 -1.947,-1.952 C 97.209,21.073 80.207,11.493 62.75,2.698 l -0.014,-0.007 0.006,0.003 c -1,-0.49 -2.156,-0.688 -3.314,-0.692 -1.159,0.004 -2.314,0.202 -3.315,0.692 L 56.106,2.698 C 38.647,11.492 21.645,21.071 4.711,30.768 3.885,31.244 3.233,31.937 2.764,32.719 2.298,33.504 2.004,34.385 2,35.308 c 0,0.207 0.016,0.415 0.051,0.625 z"
       fill="#545558"
       id="path40" /></g></g></svg>
